<?xml version="1.0" encoding="UTF-8" standalone="no"?>
<!-- Created with Inkscape (http://www.inkscape.org/) -->

<svg
   xmlns:dc="http://purl.org/dc/elements/1.1/"
   xmlns:cc="http://creativecommons.org/ns#"
   xmlns:rdf="http://www.w3.org/1999/02/22-rdf-syntax-ns#"
   xmlns:svg="http://www.w3.org/2000/svg"
   xmlns="http://www.w3.org/2000/svg"
   version="1.1"
   width="694.29828"
   height="900.22479"
   id="svg2">
  <title
     id="title2998">Say Ahh 2</title>
  <defs
     id="defs4" />
  <metadata
     id="metadata7">
    <rdf:RDF>
      <cc:Work
         rdf:about="">
        <dc:format>image/svg+xml</dc:format>
        <dc:type
           rdf:resource="http://purl.org/dc/dcmitype/StillImage" />
        <dc:title>Say Ahh 2</dc:title>
        <dc:date>2016</dc:date>
        <dc:creator>
          <cc:Agent>
            <dc:title>Doodleguy</dc:title>
          </cc:Agent>
        </dc:creator>
        <dc:rights>
          <cc:Agent>
            <dc:title>Public Domain</dc:title>
          </cc:Agent>
        </dc:rights>
        <cc:license
           rdf:resource="http://creativecommons.org/licenses/publicdomain/" />
      </cc:Work>
      <cc:License
         rdf:about="http://creativecommons.org/licenses/publicdomain/">
        <cc:permits
           rdf:resource="http://creativecommons.org/ns#Reproduction" />
        <cc:permits
           rdf:resource="http://creativecommons.org/ns#Distribution" />
        <cc:permits
           rdf:resource="http://creativecommons.org/ns#DerivativeWorks" />
      </cc:License>
    </rdf:RDF>
  </metadata>
  <g
     transform="translate(-36.596611,-19.802163)"
     id="layer1">
    <path
       d="m 296.40902,919.84791 c -8.93461,-2.02645 -5.25651,-18.46788 7.11659,-31.81167 5.01413,-5.40745 8.33765,-13.43955 7.75553,-18.7428 -0.5603,-5.10405 1.3878,-11.2774 4.32912,-13.71837 7.03605,-5.83947 6.77121,-24.53942 -0.72041,-50.87512 -8.83518,-31.05863 -13.66415,-39.00558 -23.70191,-39.00558 -8.59035,0 -52.7255,-15.15351 -56.63399,-19.44489 -1.08005,-1.1859 -5.49845,-2.75221 -9.81866,-3.48076 -15.16305,-2.557 -48.12257,-24.3153 -66.34803,-43.79974 -10.12394,-10.8233 -19.66182,-19.6869 -21.19533,-19.69692 -2.79026,-0.0196 -22.84997,-18.73616 -30.31929,-28.29131 -7.93355,-10.14903 -41.610786,-83.28381 -43.028244,-93.44178 -0.452122,-3.24016 -4.754579,-18.26271 -9.561003,-33.38343 -4.806437,-15.12072 -9.537921,-32.7943 -10.514408,-39.27461 -6.011334,-39.89368 -7.476468,-66.55203 -7.123149,-129.6062 0.347183,-61.94961 1.643475,-75.69932 10.480075,-111.1562 5.54616,-22.2541 14.789953,-49.46201 20.541719,-60.46208 5.751804,-11.00008 11.024851,-22.94474 11.71797,-26.54371 1.956779,-10.16069 24.45346,-41.74573 37.63202,-52.83472 6.52991,-5.494553 17.53152,-12.510849 24.44797,-15.591701 47.41922,-21.122315 59.89272,-28.151134 77.13714,-43.466586 21.86166,-19.416259 41.5455,-25.061399 88.60924,-25.412235 29.66388,-0.221116 71.54541,6.47414 74.94918,11.981545 1.15496,1.868685 6.08448,3.397634 10.95449,3.397634 4.87005,0 26.67135,8.836789 48.44734,19.637312 21.776,10.80051 41.75495,19.637299 44.39771,19.637299 2.64275,0 10.84371,5.302076 18.22436,11.782389 7.38068,6.480302 16.02062,11.782378 19.19989,11.782378 3.17929,0 9.62225,4.418395 14.31773,9.818655 4.69547,5.40025 11.62197,9.81864 15.39227,9.81864 14.03356,0 75.40936,63.76202 109.55223,113.81149 17.13331,25.11541 19.39431,29.00469 32.01386,55.06933 11.14535,23.01967 14.88666,34.49677 27.10534,83.15059 12.70648,50.59626 12.05695,122.68161 -1.38011,153.17089 -3.16863,7.18976 -8.12497,19.25803 -11.01406,26.81839 -4.9226,12.88167 -36.678,62.4454 -42.77742,66.76684 -1.52445,1.08004 -4.72022,5.66822 -7.10172,10.19591 -6.70059,12.73903 -62.28611,53.13725 -95.03241,69.06727 -46.99717,22.86261 -64.96562,30.70571 -70.34644,30.70571 -2.76489,0 -9.71819,2.45526 -15.45173,5.45607 -5.73354,3.00085 -24.04203,11.89482 -40.6855,19.7644 -17.24756,8.15521 -33.49764,18.8983 -37.78752,24.98174 -15.10411,21.419 -27.68907,54.5006 -25.91924,68.13292 4.96121,38.21483 6.25165,44.59379 9.41703,46.55007 1.89646,1.1721 4.02258,7.41084 4.72474,13.86389 1.11861,10.2803 -0.0731,11.88783 -9.62499,12.98522 -9.54086,1.09625 -11.82017,-0.86481 -18.2601,-15.7098 -6.06788,-13.98736 -7.13423,-24.64753 -6.07994,-60.78072 0.88591,-30.36335 3.20744,-47.54858 7.56044,-55.96631 l 6.28193,-12.14795 -17.10091,0 -17.10087,0 1.44671,16.69171 c 4.41153,50.89779 5.62381,82.64559 3.48181,91.18015 -4.07394,16.23178 -31.48137,40.95024 -42.60705,38.42675 z m 89.42966,-173.91624 c 1.29241,-2.09113 4.65181,-3.80206 7.46532,-3.80206 2.81351,0 17.37049,-6.73629 32.3488,-14.9696 14.97835,-8.23325 34.2222,-17.86264 42.76412,-21.39865 l 15.53078,-6.42905 -15.70984,-0.50288 c -8.64041,-0.27649 -19.24456,-1.21224 -23.56476,-2.07923 -4.32021,-0.86699 -19.34275,-2.36909 -33.38342,-3.33803 -45.07873,-3.11079 -56.44341,-6.49229 -119.7929,-35.64351 -25.37756,-11.67787 -50.52944,-25.30986 -55.89305,-30.29329 -12.65181,-11.75505 -28.47943,-47.3783 -31.24558,-70.32445 -2.87523,-23.85088 14.15067,-91.10161 31.48213,-124.35142 3.08415,-5.91686 9.60055,-21.36207 14.48089,-34.3227 9.34218,-24.81001 27.22005,-67.82906 39.17222,-94.25905 25.15099,-55.61681 33.49986,-69.86871 53.93264,-92.06554 l 22.69785,-24.6575 28.13142,-1.39365 c 23.11099,-1.14494 31.17147,0.15866 45.1658,7.30452 9.36893,4.784 17.91806,9.7855 18.99811,11.11443 1.08006,1.32894 6.38212,3.77265 11.78238,5.43043 5.40026,1.65782 16.07345,8.62408 23.71821,15.48056 7.64477,6.85652 22.30881,18.25205 32.58673,25.32344 18.3405,12.61862 36.1196,29.13921 51.70023,48.04062 14.70395,17.83786 42.98111,55.53056 47.91789,63.87328 11.2598,19.02795 29.81359,58.66031 30.27884,64.67792 0.27531,3.56272 2.91075,10.77543 5.85615,16.02825 6.8597,12.23337 15.7417,49.26826 16.07691,67.03492 0.23447,12.42382 0.70514,12.99051 4.89378,5.89119 7.06369,-11.9722 7.9086,-19.46952 8.40927,-74.62175 0.59745,-65.81003 -1.58853,-81.16164 -20.10903,-141.22112 -3.34266,-10.83987 -44.90524,-75.61383 -60.58929,-94.42653 -7.20347,-8.6404 -24.12545,-25.4303 -37.60441,-37.31087 -13.47897,-11.88057 -27.56877,-24.69391 -31.31066,-28.47409 -9.32788,-9.42331 -15.56166,-8.61731 -15.18827,1.96373 0.24349,6.89847 -1.94131,8.92212 -9.96028,9.22584 -5.64969,0.21405 -14.4379,3.30688 -19.52934,6.87306 -11.48005,8.04092 -24.06029,8.12819 -46.47721,0.32245 -23.10282,-8.04467 -39.58143,-20.18979 -39.58143,-29.17251 0,-4.01882 -2.65103,-9.95797 -5.89119,-13.19813 -8.07871,-8.07871 -7.38598,-17.158285 1.67922,-22.009839 10.2279,-5.473816 19.4881,-1.284121 22.34812,10.111169 1.29717,5.16834 7.60329,13.8102 14.01354,19.20411 12.72241,10.70519 33.65123,12.96632 52.76213,5.70036 l 10.80146,-4.10668 -11.52765,-10.97278 C 489.13514,108.15203 469.80885,97.42971 452.52803,90.359654 435.24719,83.289635 416.68994,74.477742 411.28968,70.77769 399.19867,62.493413 378.4232,54.033226 366.89685,52.700018 c -4.74535,-0.54887 -19.23203,-2.934992 -32.19264,-5.302466 -16.20448,-2.960014 -30.92508,-3.09291 -47.12954,-0.4255 -12.96063,2.133432 -24.6154,3.889204 -25.89948,3.901728 -1.28409,0.01134 -7.46983,4.470404 -13.74611,9.906396 -11.07501,9.592274 -55.03664,37.245879 -59.21072,37.245879 -5.21877,0 -31.20426,14.200475 -37.49272,20.488925 -3.85181,3.85183 -9.59214,7.0033 -12.7563,7.0033 -3.16416,0 -7.7946,3.97655 -10.28992,8.83679 -2.4953,4.86023 -9.47523,14.13885 -15.51095,20.61917 -10.59154,11.37165 -29.879692,52.74521 -33.744579,72.38283 -1.033045,5.24889 -2.646559,10.78657 -3.585576,12.30594 -0.939068,1.51938 -2.665811,9.59632 -3.837207,17.94877 -1.171447,8.35245 -3.191852,19.60467 -4.489757,25.00493 -3.903428,16.2408 -4.876059,31.2876 -4.950571,76.58548 -0.06325,38.45947 0.837732,55.45135 5.206284,98.18652 1.859413,18.1896 13.077661,65.70878 20.037273,84.87565 3.442651,9.48109 6.740941,19.00569 7.329549,21.16579 3.134463,11.50341 15.503884,36.07876 25.949824,51.55668 6.52093,9.66222 11.85626,18.73434 11.85626,20.16029 0,9.58107 84.89528,79.49026 96.53024,79.49026 5.16126,0 18.13312,5.09597 50.87364,19.9856 8.70868,3.96049 29.91697,8.6703 47.12953,10.46625 46.79653,4.88266 56.28441,5.01847 58.8653,0.84244 z M 168.59532,221.47235 c -4.83699,-3.38794 -7.90076,-7.60611 -6.80834,-9.37363 1.09239,-1.76755 -0.6454,-5.39775 -3.86176,-8.06713 -7.36929,-6.11595 -7.58454,-18.09463 -0.37467,-20.86124 3.01019,-1.15511 9.50403,2.19049 14.43071,7.43475 6.13402,6.52936 13.23812,9.53493 22.53725,9.53493 23.48285,0 42.41937,-26.39088 55.65782,-77.56734 3.10964,-12.02106 6.33888,-16.69171 11.54049,-16.69171 10.53635,0 17.23696,10.12323 14.92388,22.54692 -4.74972,25.51086 -12.17504,46.18855 -17.8445,49.69247 -2.05402,1.26948 -4.94943,7.14826 -6.43416,13.06391 -4.12116,16.42013 -23.15415,31.10898 -44.01387,33.96814 -25.97014,3.55961 -29.9415,3.19197 -39.7527,-3.68007 z m 279.72541,437.19872 c -4.06363,-4.86023 -9.32753,-10.60415 -11.69755,-12.76424 -2.37007,-2.1601 -9.1705,-12.25914 -15.11212,-22.4423 -12.25993,-21.01187 -31.17741,-34.50589 -48.3743,-34.50589 -30.53526,0 -43.84465,-18.2994 -38.62497,-53.10653 3.36195,-22.41928 13.95832,-35.14633 39.20726,-47.091 20.74594,-9.81437 36.68543,-10.20134 54.09743,-1.31335 4.903,2.50278 7.80829,1.36861 10.79635,-4.21463 5.43902,-10.1629 16.8483,-13.34131 45.28339,-12.61504 29.07656,0.74268 63.42801,16.77131 88.82817,41.44795 17.57558,17.0749 18.75712,18.46892 34.06282,40.18801 10.48349,14.87628 12.02556,51.89511 2.89136,69.40801 -8.18782,15.69829 -2.58954,11.93626 20.61386,-13.85255 21.59632,-24.00264 26.78458,-38.66738 22.79695,-64.43627 -1.30137,-8.40964 -3.27205,-21.47599 -4.37928,-29.03635 -3.9833,-27.19849 -10.95597,-57.02025 -14.18748,-60.67926 -1.81233,-2.05211 -3.29514,-7.50146 -3.29514,-12.10966 0,-4.60825 -1.32551,-9.70413 -2.94559,-11.32421 -1.62008,-1.62007 -3.06798,-4.12383 -3.21758,-5.56387 -0.14963,-1.44009 -4.75788,-12.33879 -10.24065,-24.21936 -11.34762,-24.589 -43.0405,-68.18036 -73.92778,-101.68246 -9.91837,-10.75803 -72.99295,-59.34342 -77.04091,-59.34342 -1.20338,0 -9.64333,-5.35408 -18.75551,-11.89794 -10.17369,-7.30622 -24.46583,-13.1465 -37.0332,-15.13313 -19.66546,-3.1087 -20.96223,-2.74239 -33.16772,9.36908 -25.1196,24.92613 -50.54749,70.0102 -75.97269,134.70098 -14.27541,36.3217 -20.21585,50.46394 -31.40452,74.76401 -11.8347,25.70306 -31.48461,87.33957 -34.6373,108.64774 -3.86949,26.15323 14.56186,64.54475 35.86836,74.71185 6.92859,3.30621 13.53666,7.53098 14.68462,9.38843 1.14793,1.85742 8.11316,4.50758 15.47825,5.88931 7.36508,1.38168 17.5469,5.74305 22.62625,9.69191 9.25216,7.19291 33.08847,13.69663 66.1834,18.05807 29.82369,3.93038 45.09075,6.64055 46.80226,8.30831 0.90002,0.87701 6.03419,1.59459 11.40919,1.59459 9.70563,0 9.72201,-0.0609 2.38437,-8.83679 z m 80.25302,-13.85101 c 5.53831,1.28808 30.68196,-12.26244 41.35405,-22.28669 9.78868,-9.19447 11.41692,-13.74407 11.78237,-32.92229 0.35151,-18.45498 -1.25191,-24.18892 -9.3946,-33.59224 -17.83421,-20.59526 -32.96133,-33.41771 -51.01846,-43.24563 -18.5563,-10.09963 -58.95044,-17.97948 -58.95044,-11.49976 0,2.01211 7.22645,10.95707 16.0588,19.8777 11.80857,11.92664 15.40715,18.27256 13.59659,23.97703 -4.50911,14.207 -13.39237,12.80867 -32.02082,-5.04054 -9.89453,-9.48061 -26.58883,-20.93658 -37.09848,-25.45772 -18.21033,-7.83387 -19.86187,-7.91874 -35.13895,-1.80608 -14.57225,5.83066 -27.51112,21.1522 -27.51112,32.57726 0,2.17916 11.22029,9.15542 24.93396,15.50287 26.6298,12.32574 53.61525,33.40481 53.61525,41.88036 0,2.83636 1.38935,5.74615 3.08746,6.46621 1.69812,0.72002 7.12053,7.05305 12.04984,14.07339 4.92928,7.02033 11.49305,12.76424 14.58609,12.76424 3.09306,0 5.62377,1.45568 5.62377,3.23478 0,5.47283 28.80187,11.06605 40.69858,7.90351 6.18343,-1.64373 12.36919,-2.7266 13.74611,-2.4064 z"
       id="path2996"
       style="fill:#000000" />
  </g>
</svg>
